<svg xmlns="http://www.w3.org/2000/svg" version="1.1" viewBox="-5.0 -10.0 110.0 135.0">
 <g>
  <path d="m80.301 78.352c-3.9531 3.9375-8.1133 7.6602-12.465 11.156 6.0273 3.7852 12.219 6.7461 18.109 1.082l4.582-4.582c5.5898-5.8125 2.7812-11.934-0.96094-17.914v-0.003906c-2.9062 3.582-6 7.0039-9.2656 10.262z"/>
  <path d="m68.48 66.512c-4.8789 4.8633-10.078 9.3906-15.566 13.555 4.0312 2.6992 8.1406 5.3633 11.977 7.6875 0.32812-0.25781 0.65625-0.51953 0.99219-0.78906 7.75-6.1836 14.84-13.152 21.156-20.793 0.26953-0.31641 0.54297-0.65625 0.80078-0.98047-2.3242-3.8398-4.9688-7.9492-7.6641-11.977v-0.003906c-3.6016 4.6875-7.5078 9.1289-11.695 13.301z"/>
  <path d="m56.727 54.621c-5.6289 5.6289-11.688 10.812-18.117 15.5 3.4336 2.4609 7.3711 5.25 11.492 8.0586 0.33984-0.25 0.67578-0.49609 1.0273-0.75781v0.003906c9.8945-7.4805 18.77-16.223 26.395-26.008 0.26953-0.33984 0.53125-0.66797 0.77734-1.0039-2.8125-4.0977-5.5898-8.0508-8.0508-11.48l0.003906-0.003906c-4.0977 5.5703-8.6211 10.82-13.527 15.691z"/>
  <path d="m44.875 42.836c-5.9062 5.8945-12.273 11.301-19.047 16.18l-0.98047 0.71094c1.9219 1.7344 3.9531 3.3477 6.0742 4.832 1.3555 0.99219 3.0352 2.2227 4.9453 3.6133v-0.003906c12.082-8.6289 22.77-19.07 31.676-30.953 0.25781-0.32812 0.50781-0.66797 0.74609-1.0156-1.457-2.0195-2.7422-3.7812-3.7812-5.2031-1.4336-2.0469-2.9922-4.0039-4.6641-5.8594-4.4727 6.3164-9.4805 12.238-14.969 17.699z"/>
  <path d="m56.953 23.691c0.22656-0.31641 0.45312-0.63281 0.66797-0.96094-9.9922-10.285-23.605-18.094-34.273-16.188-4.2734 0.5625-8.2422 2.5156-11.289 5.5625-3.0508 3.043-5.0117 7.0078-5.5781 11.281-1.9297 10.621 5.7578 24.137 15.973 34.105v-0.003907c13.316-9.2461 24.98-20.676 34.5-33.797zm-13.602-0.44141c-5.0664 8.1953-11.969 15.098-20.164 20.164-1.25 0.75391-2.8555 0.56641-3.8945-0.46484-7.0078-9.5586-8.0234-20.336-2.3125-25.887 2.9727-2.8125 7.043-4.1523 11.105-3.6562 5.1836 0.58594 10.121 2.5078 14.34 5.5781 1.3945 0.94922 1.8008 2.8242 0.92578 4.2656z"/>
  <path d="m19.238 19.32c-5.3789 6.0391-2.2383 14.465 2.3008 21.359 7.75-4.8125 14.289-11.352 19.102-19.102-8.5664-5.7891-16.969-6.6914-21.402-2.2578z"/>
 </g>
<text x="0.0" y="117.5" font-size="5.0" font-weight="bold" font-family="Arbeit Regular, Helvetica, Arial-Unicode, Arial, Sans-serif" fill="#000000">Created by Metami Septiana</text><text x="0.0" y="122.5" font-size="5.0" font-weight="bold" font-family="Arbeit Regular, Helvetica, Arial-Unicode, Arial, Sans-serif" fill="#000000">from Noun Project</text></svg>