<svg xmlns="http://www.w3.org/2000/svg" version="1.1" viewBox="-5.0 -10.0 110.0 135.0">
 <path d="m95.312 7.8125h-6.25c-0.85938 0-1.5625 0.70312-1.5625 1.5625v7.1719l-5.1406-5.1562c-0.29688-0.28125-0.6875-0.45312-1.1094-0.45312h-6.25c-0.59375 0-1.125 0.32812-1.3906 0.85938s-0.21875 1.1719 0.14062 1.6406l13.75 18.328v5.2188c-6.875 8.8594-21.516 14.578-37.5 14.578s-30.625-5.7188-37.5-14.578v-5.2188l13.75-18.328c0.35938-0.46875 0.40625-1.1094 0.14062-1.6406s-0.79688-0.85938-1.3906-0.85938h-6.25c-0.42188 0-0.8125 0.17188-1.1094 0.45312l-5.1406 5.1562v-7.1719c0-0.85938-0.70312-1.5625-1.5625-1.5625h-6.25c-0.85938 0-1.5625 0.70312-1.5625 1.5625v81.25c0 0.85938 0.70312 1.5625 1.5625 1.5625h90.625c0.85938 0 1.5625-0.70312 1.5625-1.5625v-81.25c0-0.85938-0.70312-1.5625-1.5625-1.5625zm-85.938 71.875h-3.125v-40.625h3.125zm81.25-40.625h3.125v40.625h-3.125zm-12.5-25h2.4844l7.3438 7.3594c0.45312 0.4375 1.125 0.57812 1.7031 0.32812 0.59375-0.23438 0.96875-0.8125 0.96875-1.4375v-9.375h3.125v25h-3.125v-4.6875c0-0.34375-0.10938-0.67188-0.3125-0.9375zm-28.125 59.375c15.266 0 29.391-10.703 37.5-27.875v34.125h-75v-34.125c8.1094 17.172 22.234 27.875 37.5 27.875zm-40.625-62.5v9.375c0 0.625 0.375 1.2031 0.96875 1.4375 0.57812 0.25 1.25 0.10938 1.7031-0.32812l7.3438-7.3594h2.4844l-12.188 16.25c-0.20312 0.26562-0.3125 0.59375-0.3125 0.9375v4.6875h-3.125v-25z"/>
<text x="0.0" y="117.5" font-size="5.0" font-weight="bold" font-family="Arbeit Regular, Helvetica, Arial-Unicode, Arial, Sans-serif" fill="#000000">Created by Roat Studio</text><text x="0.0" y="122.5" font-size="5.0" font-weight="bold" font-family="Arbeit Regular, Helvetica, Arial-Unicode, Arial, Sans-serif" fill="#000000">from Noun Project</text></svg>