<svg xmlns="http://www.w3.org/2000/svg" version="1.1" viewBox="-5.0 -10.0 110.0 135.0">
 <path d="m8.0273 69.598c-0.039063-0.10938-0.035156-0.22656 0.015625-0.32812 0.046875-0.10547 0.13672-0.18359 0.24219-0.22266 0.046875-0.015625 0.097656-0.027344 0.14844-0.027344 0.0625 0 0.125 0.015625 0.18359 0.039063 0.10547 0.046875 0.18359 0.13672 0.22266 0.24219l0.125 0.34375-0.8125 0.29297zm1.8711 5.1406c0.039062 0.10938 0.11719 0.19531 0.22266 0.24219 0.10547 0.046875 0.22266 0.054687 0.33203 0.015625 0.10938-0.039063 0.19531-0.11719 0.24219-0.22266 0.050782-0.10547 0.054688-0.22266 0.015626-0.32813l-1.4023-3.8555-0.8125 0.29297zm79.406 0.035157c0.046874 0.10547 0.13281 0.18359 0.24219 0.22266 0.10938 0.039062 0.22656 0.035156 0.33203-0.015625 0.10547-0.050781 0.18359-0.13672 0.22266-0.24219l1.4062-3.8633-0.8125-0.28906-1.4062 3.8594c-0.035156 0.10938-0.03125 0.22656 0.015626 0.32813zm2.668-5.1719c0.039063-0.10937 0.035156-0.22656-0.015625-0.32812-0.046875-0.10547-0.13672-0.18359-0.24219-0.22266-0.046875-0.015625-0.097656-0.027343-0.14844-0.027343-0.0625 0-0.125 0.015624-0.17969 0.039062-0.10547 0.046875-0.18359 0.13672-0.22266 0.24219l-0.125 0.33984 0.8125 0.29297zm-41.973-27.594c-1.6914 17.73-7.3789 29.105-16.637 33.281h33.273c-9.2578-4.1758-14.945-15.551-16.637-33.281zm18.484 32.949-17.793-36.996c0.89453 14.973 4.832 32.438 17.793 36.996zm-19.176-36.996-17.793 36.996c12.961-4.5586 16.898-22.023 17.793-36.996zm41.348 31.438-40.289-44.656c-0.089844-0.10547-0.22656-0.16406-0.36719-0.16406s-0.27734 0.058594-0.37109 0.16406l-40.18 44.656c-0.18359 0.20703-0.16797 0.52344 0.039062 0.70703 0.20703 0.18359 0.52344 0.16797 0.70703-0.039063l37.273-41.426-33.164 46.645h15.945l19.23-39.988c0.09375-0.19922 0.30859-0.30078 0.51953-0.27344 0.21484-0.027344 0.42188 0.074218 0.51953 0.27344l19.23 39.988h15.945l-33.191-46.688 37.41 41.469c0.097657 0.10938 0.23438 0.16406 0.37109 0.16406 0.12109 0 0.23828-0.042969 0.33594-0.12891 0.20703-0.18359 0.22266-0.5 0.035156-0.70312z"/>
<text x="0.0" y="117.5" font-size="5.0" font-weight="bold" font-family="Arbeit Regular, Helvetica, Arial-Unicode, Arial, Sans-serif" fill="#000000">Created by Kael</text><text x="0.0" y="122.5" font-size="5.0" font-weight="bold" font-family="Arbeit Regular, Helvetica, Arial-Unicode, Arial, Sans-serif" fill="#000000">from Noun Project</text></svg>