<svg xmlns="http://www.w3.org/2000/svg" version="1.1" viewBox="-5.0 -10.0 110.0 135.0">
 <path d="m53.652 60.016c2.8867 7.6211 7.8086 14.312 14.223 19.34v-10.734c-5.6406-1.0117-10.711-4.0781-14.223-8.6094zm-43.652 20.164h21.035c10.125-7.4453 16.648-18.812 17.965-31.312v-29.051c-4.75 8.6133-10.684 17.535-17.59 25.348-6.3711 7.207-13.562 13.461-21.41 17.648zm58.59-35.02c-6.9023-7.8086-12.84-16.734-17.59-25.348v29.027c0.65625 4.5234 2.7578 8.7109 5.9883 11.941 3.25 3.2539 7.4727 5.3594 12.027 6.0039 0.49219 0.070313 0.85547 0.48828 0.85938 0.98828h0.003906v12.41h20.121v-17.367c-7.8477-4.1914-15.039-10.445-21.41-17.648"/>
<text x="0.0" y="117.5" font-size="5.0" font-weight="bold" font-family="Arbeit Regular, Helvetica, Arial-Unicode, Arial, Sans-serif" fill="#000000">Created by Alvida</text><text x="0.0" y="122.5" font-size="5.0" font-weight="bold" font-family="Arbeit Regular, Helvetica, Arial-Unicode, Arial, Sans-serif" fill="#000000">from Noun Project</text></svg>